<svg id="Layer_1" data-name="Layer 1" xmlns="http://www.w3.org/2000/svg" viewBox="0 0 1300 1500"><defs><style>.cls-1,.cls-2,.cls-3,.cls-31,.cls-4,.cls-5,.cls-6,.cls-63,.cls-64,.cls-65,.cls-7{fill:none;stroke-miterlimit:10;}.cls-1,.cls-2,.cls-3,.cls-31,.cls-4,.cls-5,.cls-6,.cls-64,.cls-65,.cls-7{stroke:#666;stroke-linecap:round;stroke-width:2.13px;}.cls-2{stroke-dasharray:0 4.96;}.cls-3{stroke-dasharray:0 4.99;}.cls-4{stroke-dasharray:0 4.97;}.cls-5{stroke-dasharray:0 4.96;}.cls-6{stroke-dasharray:0 4.96;}.cls-7{stroke-dasharray:0 4.97;}.cls-8{fill:#fff;}.cls-61,.cls-62,.cls-9{font-size:20.57px;fill:#606060;font-family:MaisonNeue-Book, Maison Neue;}.cls-10,.cls-61{letter-spacing:0.02em;}.cls-11{letter-spacing:-0.01em;}.cls-12{letter-spacing:-0.02em;}.cls-13{letter-spacing:0em;}.cls-14{letter-spacing:0.02em;}.cls-15{letter-spacing:0.01em;}.cls-16{letter-spacing:-0.02em;}.cls-17{letter-spacing:0.01em;}.cls-18{letter-spacing:-0.08em;}.cls-19{letter-spacing:0.02em;}.cls-20{letter-spacing:0em;}.cls-21{letter-spacing:0em;}.cls-22{letter-spacing:-0.03em;}.cls-23,.cls-62{letter-spacing:-0.01em;}.cls-24{letter-spacing:-0.02em;}.cls-25{letter-spacing:0.01em;}.cls-26{letter-spacing:-0.01em;}.cls-27{letter-spacing:0em;}.cls-28{letter-spacing:-0.03em;}.cls-29{letter-spacing:0.04em;}.cls-30{letter-spacing:0.01em;}.cls-31{stroke-dasharray:0 4.96;}.cls-32,.cls-35,.cls-38,.cls-45{font-size:26.25px;fill:#28a078;font-family:MaisonNeue-Bold, Maison Neue;font-weight:700;}.cls-32,.cls-36{letter-spacing:0.02em;}.cls-33{letter-spacing:-0.01em;}.cls-34{letter-spacing:0.02em;}.cls-37{letter-spacing:0em;}.cls-38{letter-spacing:-0.05em;}.cls-39{letter-spacing:-0.02em;}.cls-40{letter-spacing:0.01em;}.cls-41{letter-spacing:0.02em;}.cls-42{letter-spacing:0em;}.cls-43{letter-spacing:0em;}.cls-44{letter-spacing:0em;}.cls-45{letter-spacing:-0.05em;}.cls-46{letter-spacing:-0.02em;}.cls-47{letter-spacing:0.01em;}.cls-48{letter-spacing:-0.01em;}.cls-49{letter-spacing:-0.04em;}.cls-50{letter-spacing:0em;}.cls-51{letter-spacing:-0.06em;}.cls-52{letter-spacing:-0.1em;}.cls-53{letter-spacing:-0.03em;}.cls-54{letter-spacing:-0.12em;}.cls-55{letter-spacing:-0.04em;}.cls-56{letter-spacing:-0.1em;}.cls-57{letter-spacing:-0.04em;}.cls-58{letter-spacing:-0.06em;}.cls-59{letter-spacing:-0.02em;}.cls-60{letter-spacing:-0.07em;}.cls-63{stroke:#bedcc8;stroke-width:4.26px;}.cls-64{stroke-dasharray:0 5.5;}.cls-65{stroke-dasharray:0 4.87;}</style></defs><title>BOR_12673_Skipurit_uppfaersla</title><line class="cls-1" x1="1270.5" y1="1450.1" x2="1270.5" y2="1450.1"/><line class="cls-2" x1="1265.54" y1="1450.1" x2="31.98" y2="1450.1"/><line class="cls-1" x1="29.5" y1="1450.1" x2="29.5" y2="1450.1"/><line class="cls-3" x1="29.5" y1="1445.12" x2="29.5" y2="1063.6"/><line class="cls-1" x1="29.5" y1="1061.1" x2="29.5" y2="1061.1"/><line class="cls-2" x1="34.46" y1="1061.1" x2="1268.02" y2="1061.1"/><line class="cls-1" x1="1270.5" y1="1061.1" x2="1270.5" y2="1061.1"/><line class="cls-3" x1="1270.5" y1="1066.09" x2="1270.5" y2="1447.61"/><line class="cls-1" x1="1237.5" y1="1067.1" x2="1237.5" y2="1067.1"/><line class="cls-4" x1="1237.5" y1="1072.07" x2="1237.5" y2="1392.62"/><line class="cls-1" x1="1237.5" y1="1395.1" x2="1237.5" y2="1395.1"/><line class="cls-5" x1="1232.54" y1="1395.1" x2="64.98" y2="1395.1"/><line class="cls-1" x1="62.5" y1="1395.1" x2="62.5" y2="1395.1"/><line class="cls-4" x1="62.5" y1="1390.13" x2="62.5" y2="1069.59"/><line class="cls-1" x1="62.5" y1="1067.1" x2="62.5" y2="1067.1"/><line class="cls-1" x1="1204.5" y1="1067.1" x2="1204.5" y2="1067.1"/><line class="cls-6" x1="1204.5" y1="1072.07" x2="1204.5" y2="1337.62"/><line class="cls-1" x1="1204.5" y1="1340.1" x2="1204.5" y2="1340.1"/><line class="cls-7" x1="1199.53" y1="1340.1" x2="97.99" y2="1340.1"/><line class="cls-1" x1="95.5" y1="1340.1" x2="95.5" y2="1340.1"/><line class="cls-6" x1="95.5" y1="1335.14" x2="95.5" y2="1069.58"/><line class="cls-1" x1="95.5" y1="1067.1" x2="95.5" y2="1067.1"/><rect class="cls-8" x="437.55" y="49.9" width="425.61" height="216.35"/><text class="cls-9" transform="translate(475.5 142.2)"><tspan class="cls-10">Bo</tspan><tspan class="cls-11" x="25.94" y="0">r</tspan><tspan class="cls-10" x="32.42" y="0">ga</tspan><tspan class="cls-12" x="55.69" y="0">r</tspan><tspan class="cls-13" x="61.96" y="0">s</tspan><tspan class="cls-14" x="72.29" y="0">tjóri, </tspan><tspan class="cls-15" x="121.55" y="0">b</tspan><tspan class="cls-10" x="133.81" y="0">æja</tspan><tspan class="cls-16" x="168.33" y="0">r</tspan><tspan x="174.6" y="0">s</tspan><tspan class="cls-14" x="184.93" y="0">tjóri H</tspan><tspan x="241.38" y="0">a</tspan><tspan class="cls-14" x="251.87" y="0">fnarfja</tspan><tspan class="cls-11" x="312.26" y="0">r</tspan><tspan class="cls-17" x="318.74" y="0">ð</tspan><tspan class="cls-14" x="331.09" y="0">a</tspan><tspan class="cls-18" x="341.99" y="0">r</tspan><tspan class="cls-19" x="347.03" y="0">, </tspan><tspan class="cls-15" x="2.89" y="27.66">b</tspan><tspan class="cls-10" x="15.15" y="27.66">æja</tspan><tspan class="cls-12" x="49.67" y="27.66">r</tspan><tspan x="55.94" y="27.66">s</tspan><tspan class="cls-10" x="66.27" y="27.66">tjóri </tspan><tspan x="108.89" y="27.66">K</tspan><tspan class="cls-14" x="121.25" y="27.66">ó</tspan><tspan class="cls-17" x="133.8" y="27.66">p</tspan><tspan class="cls-11" x="146.06" y="27.66">av</tspan><tspan class="cls-14" x="167.17" y="27.66">ogs,</tspan><tspan class="cls-20" x="209.46" y="27.66"> </tspan><tspan class="cls-14" x="215.02" y="27.66">skri</tspan><tspan class="cls-17" x="248.48" y="27.66">f</tspan><tspan class="cls-20" x="255.64" y="27.66">s</tspan><tspan class="cls-11" x="265.97" y="27.66">t</tspan><tspan x="272.72" y="27.66">o</tspan><tspan class="cls-14" x="284.85" y="27.66">fu</tspan><tspan x="303.8" y="27.66">s</tspan><tspan class="cls-14" x="314.13" y="27.66">tjóri </tspan><tspan class="cls-10"><tspan x="19.08" y="55.33">SRN,</tspan><tspan class="cls-13" x="65.69" y="55.33"> </tspan><tspan class="cls-21" x="71.25" y="55.33">f</tspan><tspan x="78.18" y="55.33">o</tspan><tspan class="cls-12" x="90.73" y="55.33">r</tspan><tspan class="cls-13" x="97" y="55.33">s</tspan><tspan class="cls-14" x="107.33" y="55.33">tjóri</tspan><tspan class="cls-11" x="143.99" y="55.33"> </tspan><tspan class="cls-22" x="149.33" y="55.33">V</tspan><tspan class="cls-19" x="161.12" y="55.33">egage</tspan><tspan class="cls-23" x="221.15" y="55.33">r</tspan><tspan class="cls-17" x="227.63" y="55.33">ð</tspan><tspan class="cls-14" x="239.97" y="55.33">arinnar</tspan><tspan class="cls-23" x="304.33" y="55.33"> </tspan><tspan class="cls-14" x="309.68" y="55.33">og </tspan></tspan><tspan class="cls-14"><tspan x="3.23" y="82.99">frk</tspan><tspan class="cls-11" x="28.61" y="82.99">v</tspan><tspan class="cls-13" x="39.43" y="82.99">s</tspan><tspan x="49.76" y="82.99">tj. þ</tspan><tspan class="cls-11" x="87.1" y="82.99">r</tspan><tspan class="cls-10" x="93.58" y="82.99">óuna</tspan><tspan class="cls-24" x="140.44" y="82.99">r</tspan><tspan class="cls-23" x="146.71" y="82.99">s</tspan><tspan x="156.83" y="82.99">vi</tspan><tspan class="cls-25" x="172.98" y="82.99">ð</tspan><tspan class="cls-19" x="185.32" y="82.99">s</tspan><tspan class="cls-23" x="196.06" y="82.99"> </tspan><tspan class="cls-22" x="201.41" y="82.99">V</tspan><tspan x="213.2" y="82.99">egage</tspan><tspan class="cls-11" x="273.22" y="82.99">r</tspan><tspan class="cls-17" x="279.7" y="82.99">ð</tspan><tspan x="292.04" y="82.99">arinnar</tspan></tspan></text><rect class="cls-8" x="437.55" y="304.34" width="425.61" height="183.72"/><text class="cls-9" transform="translate(480.4 396.65)"><tspan class="cls-10">Páll Bjö</tspan><tspan class="cls-26" x="70.23" y="0">r</tspan><tspan class="cls-14" x="76.71" y="0">gvin</tspan><tspan class="cls-13" x="117.05" y="0"> </tspan><tspan class="cls-14" x="122.6" y="0">f</tspan><tspan class="cls-16" x="129.97" y="0">r</tspan><tspan class="cls-10" x="136.24" y="0">amk</tspan><tspan x="175.12" y="0">v</tspan><tspan class="cls-14" x="186.14" y="0">æmda</tspan><tspan class="cls-16" x="245.24" y="0">r</tspan><tspan class="cls-20" x="251.52" y="0">s</tspan><tspan class="cls-14" x="261.85" y="0">tjóri SSH </tspan><tspan class="cls-10" x="25.85" y="27.66">Be</tspan><tspan class="cls-26" x="51.44" y="27.66">r</tspan><tspan class="cls-14" x="57.92" y="27.66">gþó</tspan><tspan class="cls-16" x="95.29" y="27.66">r</tspan><tspan class="cls-14" x="101.57" y="27.66">a Þor</tspan><tspan class="cls-11" x="151.14" y="27.66">k</tspan><tspan class="cls-14" x="161.45" y="27.66">elsd</tspan><tspan class="cls-17" x="201.56" y="27.66">ó</tspan><tspan class="cls-14" x="213.9" y="27.66">ttir</tspan><tspan class="cls-20" x="239.74" y="27.66"> </tspan><tspan class="cls-27" x="245.3" y="27.66">f</tspan><tspan class="cls-14" x="252.23" y="27.66">o</tspan><tspan class="cls-16" x="264.78" y="27.66">r</tspan><tspan x="271.05" y="27.66">s</tspan><tspan class="cls-14" x="281.38" y="27.66">tjóri </tspan><tspan class="cls-28"><tspan x="97.42" y="55.33">V</tspan><tspan class="cls-14" x="109.21" y="55.33">egage</tspan><tspan class="cls-23" x="169.23" y="55.33">r</tspan><tspan class="cls-17" x="175.72" y="55.33">ð</tspan><tspan class="cls-14" x="188.06" y="55.33">arinnar</tspan></tspan></text><rect class="cls-8" x="437.55" y="530.42" width="425.61" height="157.47"/><rect class="cls-8" x="886.96" y="737.93" width="292.25" height="51.78"/><rect class="cls-8" x="886.96" y="813.12" width="292.25" height="51.78"/><text class="cls-9" transform="translate(553.01 622.72)"><tspan class="cls-10">H</tspan><tspan class="cls-12" x="13.82" y="0">r</tspan><tspan x="20.1" y="0">a</tspan><tspan class="cls-14" x="30.59" y="0">fn</tspan><tspan class="cls-26" x="49.78" y="0">k</tspan><tspan class="cls-19" x="60.09" y="0">ell </tspan><tspan class="cls-29" x="87.67" y="0">Á</tspan><tspan class="cls-19" x="100.69" y="0">. P</tspan><tspan class="cls-11" x="126.32" y="0">r</tspan><tspan class="cls-19" x="132.8" y="0">opp</tspan><tspan x="170.28" y="0">é</tspan><tspan class="cls-19" x="182.07" y="0">, </tspan><tspan class="cls-26" x="-4.42" y="27.66">s</tspan><tspan x="5.7" y="27.66">v</tspan><tspan class="cls-10" x="16.72" y="27.66">æði</tspan><tspan class="cls-30" x="52.66" y="27.66">s</tspan><tspan class="cls-14" x="63.19" y="27.66">skipulag</tspan><tspan class="cls-17" x="141.59" y="27.66">s</tspan><tspan class="cls-20" x="152.12" y="27.66">s</tspan><tspan class="cls-14" x="162.45" y="27.66">tjóri</tspan></text><line class="cls-1" x1="858.71" y1="806.02" x2="858.71" y2="806.02"/><line class="cls-31" x1="853.75" y1="806.02" x2="652.84" y2="806.02"/><line class="cls-1" x1="650.35" y1="806.02" x2="650.35" y2="806.02"/><rect class="cls-8" x="120.48" y="941.5" width="224.86" height="339.19"/><rect class="cls-8" x="396.41" y="941.5" width="224.86" height="339.19"/><rect class="cls-8" x="679.44" y="941.5" width="224.86" height="339.19"/><rect class="cls-8" x="953.95" y="941.5" width="224.86" height="339.19"/><rect class="cls-8" x="121.19" y="941.5" width="1058.34" height="119.88"/><text class="cls-32" transform="translate(531.74 101.06)">Stýrihópur<tspan class="cls-33" x="132.17" y="0"> </tspan><tspan class="cls-34" x="138.6" y="0">eigenda</tspan></text><text class="cls-35" transform="translate(529.82 355.51)"><tspan class="cls-36">F</tspan><tspan x="15.06" y="0">r</tspan><tspan class="cls-34" x="24.88" y="0">amk</tspan><tspan class="cls-37" x="77.03" y="0">v</tspan><tspan class="cls-34" x="92.09" y="0">æmdastjórn</tspan></text><text class="cls-38" transform="translate(562.83 581.58)">V<tspan class="cls-36" x="15.56" y="0">er</tspan><tspan class="cls-39" x="41.05" y="0">k</tspan><tspan class="cls-40" x="55.25" y="0">e</tspan><tspan class="cls-34" x="70.13" y="0">fnastjóri</tspan></text><text class="cls-35" transform="translate(899.75 772.07)"><tspan class="cls-41">B</tspan><tspan class="cls-42" x="17.24" y="0">R</tspan><tspan class="cls-34" x="33.62" y="0">TPlan:</tspan><tspan x="112.09" y="0"> </tspan><tspan class="cls-41" x="118.79" y="0">s</tspan><tspan class="cls-43" x="132.41" y="0">t</tspan><tspan class="cls-34" x="142.64" y="0">oð</tspan><tspan class="cls-44" x="174.29" y="0">r</tspan><tspan class="cls-41" x="184.11" y="0">áðg</tspan><tspan x="230.2" y="0">j</tspan><tspan class="cls-42" x="236.55" y="0">a</tspan><tspan class="cls-41" x="250.28" y="0">fi</tspan></text><text class="cls-45" transform="translate(941.34 847.26)">V<tspan class="cls-34" x="15.56" y="0">er</tspan><tspan class="cls-46" x="41.05" y="0">k</tspan><tspan class="cls-47" x="55.25" y="0">e</tspan><tspan class="cls-34" x="70.13" y="0">fnahópur</tspan></text><text class="cls-38" transform="translate(560.75 989.82)">V<tspan class="cls-36" x="15.56" y="0">er</tspan><tspan class="cls-46" x="41.05" y="0">k</tspan><tspan class="cls-47" x="55.25" y="0">e</tspan><tspan class="cls-34" x="70.13" y="0">fn</tspan><tspan class="cls-47" x="96.64" y="0">a</tspan><tspan class="cls-42" x="110.6" y="0">t</tspan><tspan class="cls-48" x="120.83" y="0">e</tspan><tspan class="cls-41" x="135.19" y="0">ymi</tspan></text><text class="cls-9" transform="translate(146.79 1030.97)"><tspan class="cls-16">B</tspan><tspan x="12.57" y="0">r</tspan><tspan class="cls-12" x="19.25" y="0">y</tspan><tspan class="cls-13" x="29.35" y="0">n</tspan><tspan class="cls-12" x="40.77" y="0">dí</tspan><tspan x="56.3" y="0">s</tspan><tspan class="cls-49" x="66.63" y="0"> </tspan><tspan class="cls-16" x="71.36" y="0">F</tspan><tspan class="cls-50" x="82.3" y="0">ri</tspan><tspan class="cls-16" x="93.29" y="0">ð</tspan><tspan x="105.01" y="0">ri</tspan><tspan class="cls-51" x="116" y="0">k</tspan><tspan class="cls-16" x="125.27" y="0">sd</tspan><tspan class="cls-26" x="146.83" y="0">ó</tspan><tspan class="cls-50" x="158.76" y="0">tti</tspan><tspan class="cls-52" x="176.27" y="0">r</tspan><tspan x="180.9" y="0">,</tspan><tspan class="cls-49" x="187.13" y="0"> </tspan><tspan class="cls-16" x="191.86" y="0">H</tspan><tspan class="cls-49" x="204.86" y="0">r</tspan><tspan class="cls-12" x="210.73" y="0">a</tspan><tspan x="220.81" y="0">f</tspan><tspan class="cls-16" x="227.76" y="0">n</tspan><tspan class="cls-53" x="238.76" y="0">k</tspan><tspan x="248.66" y="0">el</tspan><tspan class="cls-16" x="264.74" y="0">l </tspan><tspan class="cls-14" x="273.77" y="0">Á</tspan><tspan x="286.38" y="0">.</tspan><tspan class="cls-54" x="292.58" y="0"> </tspan><tspan x="295.66" y="0">P</tspan><tspan class="cls-53" x="308.31" y="0">r</tspan><tspan x="314.38" y="0">opp</tspan><tspan class="cls-16" x="350.63" y="0">e</tspan><tspan x="362" y="0">,</tspan><tspan class="cls-55" x="368.24" y="0"> </tspan><tspan class="cls-50" x="372.97" y="0">Lilja</tspan><tspan class="cls-51" x="407.26" y="0"> </tspan><tspan class="cls-24" x="411.58" y="0">G</tspan><tspan class="cls-50" x="424.6" y="0">.</tspan><tspan class="cls-18" x="430.79" y="0"> </tspan><tspan class="cls-16" x="434.7" y="0">K</tspan><tspan class="cls-50" x="446.65" y="0">arlsd</tspan><tspan class="cls-53" x="490.51" y="0">ó</tspan><tspan x="502.03" y="0">tt</tspan><tspan class="cls-16" x="515.23" y="0">i</tspan><tspan class="cls-56" x="519.12" y="0">r</tspan><tspan class="cls-20" x="523.75" y="0">,</tspan><tspan class="cls-57" x="529.98" y="0"> </tspan><tspan x="534.71" y="0">Hallbjörn</tspan><tspan class="cls-55" x="614.03" y="0"> </tspan><tspan class="cls-16" x="618.77" y="0">R</tspan><tspan x="630.88" y="0">.</tspan><tspan class="cls-58" x="637.07" y="0"> </tspan><tspan class="cls-59" x="641.39" y="0">H</tspan><tspan x="654.39" y="0">allbjörn</tspan><tspan class="cls-23" x="720.3" y="0">s</tspan><tspan class="cls-20" x="730.42" y="0">son</tspan><tspan class="cls-60" x="764.3" y="0"> </tspan><tspan x="768.42" y="0">og</tspan><tspan class="cls-55" x="792.5" y="0"> </tspan><tspan x="797.24" y="0">R</tspan><tspan class="cls-16" x="809.76" y="0">a</tspan><tspan x="819.84" y="0">g</tspan><tspan class="cls-59" x="831.79" y="0">n</tspan><tspan x="842.8" y="0">heiður</tspan><tspan class="cls-51" x="900.3" y="0"> </tspan><tspan x="904.62" y="0">Eina</tspan><tspan class="cls-57" x="942.36" y="0">r</tspan><tspan class="cls-20" x="948.22" y="0">sd</tspan><tspan class="cls-11" x="970.61" y="0">ó</tspan><tspan x="982.54" y="0">ttir</tspan></text><text class="cls-61" transform="translate(159.49 1123.89)">Skipulag<tspan class="cls-11" x="80.45" y="0">s</tspan><tspan x="90.57" y="0">vinna </tspan><tspan x="-5.43" y="27.66">og um</tspan><tspan class="cls-23" x="54.08" y="27.66">hv</tspan><tspan x="76.11" y="27.66">erfism</tspan><tspan class="cls-15" x="134.61" y="27.66">a</tspan><tspan class="cls-14" x="145.31" y="27.66">t</tspan></text><text class="cls-61" transform="translate(120.91 1319.89)">Almann<tspan class="cls-15" x="68.93" y="0">a</tspan><tspan class="cls-26" x="79.63" y="0">t</tspan><tspan class="cls-14" x="86.38" y="0">engsl</tspan><tspan class="cls-26" x="138.21" y="0"> </tspan><tspan class="cls-14" x="143.56" y="0">og</tspan><tspan class="cls-13" x="168.47" y="0"> </tspan><tspan class="cls-14" x="174.03" y="0">samski</tspan><tspan class="cls-15" x="239.09" y="0">p</tspan><tspan class="cls-14" x="251.35" y="0">ti</tspan></text><text class="cls-9" transform="translate(81.91 1374.89)"><tspan class="cls-15">F</tspan><tspan class="cls-10" x="11.56" y="0">jármál</tspan><tspan class="cls-26" x="67.16" y="0"> </tspan><tspan class="cls-10" x="72.51" y="0">og</tspan><tspan class="cls-13" x="97.42" y="0" xml:space="preserve"> s</tspan><tspan class="cls-26" x="113.3" y="0">t</tspan><tspan class="cls-14" x="120.05" y="0">oðþjónu</tspan><tspan x="198.51" y="0">s</tspan><tspan class="cls-11" x="208.83" y="0">t</tspan><tspan class="cls-10" x="215.58" y="0">a</tspan></text><text class="cls-61" transform="translate(46.91 1431.89)">Útboð<tspan class="cls-26" x="58.96" y="0"> </tspan><tspan x="64.3" y="0">og</tspan><tspan class="cls-13" x="89.21" y="0"> </tspan><tspan x="94.77" y="0">samningar</tspan></text><text class="cls-9" transform="translate(418.8 1123.89)"><tspan class="cls-10">U</tspan><tspan x="14.03" y="0">m</tspan><tspan class="cls-27" x="30.67" y="0">f</tspan><tspan class="cls-14" x="37.6" y="0">e</tspan><tspan class="cls-23" x="49.8" y="0">r</tspan><tspan class="cls-17" x="56.28" y="0">ð</tspan><tspan class="cls-14" x="68.63" y="0">a</tspan><tspan class="cls-26" x="79.53" y="0">r</tspan><tspan class="cls-14" x="86.01" y="0">g</tspan><tspan class="cls-26" x="98.37" y="0">r</tspan><tspan class="cls-14" x="104.85" y="0">einingar </tspan><tspan class="cls-10"><tspan x="28.32" y="27.66">og lei</tspan><tspan class="cls-15" x="80.81" y="27.66">ð</tspan><tspan x="93.15" y="27.66">ar</tspan><tspan class="cls-26" x="111.15" y="27.66">k</tspan><tspan class="cls-14" x="121.46" y="27.66">erfi</tspan></tspan></text><text class="cls-62" transform="translate(730.21 1123.89)">F<tspan class="cls-14" x="11.15" y="0">orhönnun / </tspan><tspan class="cls-19"><tspan x="6.14" y="27.66">Clarifi</tspan><tspan class="cls-17" x="58.66" y="27.66">ca</tspan><tspan class="cls-14" x="81.14" y="27.66">tion</tspan></tspan><tspan class="cls-22"><tspan x="-37.26" y="82.99">V</tspan><tspan class="cls-14" x="-25.48" y="82.99">erkf</tspan><tspan class="cls-16" x="12.1" y="82.99">r</tspan><tspan class="cls-19" x="18.38" y="82.99">æðileg hönnun</tspan></tspan><tspan class="cls-14"><tspan x="-5.25" y="110.66">Bo</tspan><tspan class="cls-23" x="20.69" y="110.66">r</tspan><tspan x="27.17" y="110.66">garhönnun</tspan></tspan></text><text class="cls-9" transform="translate(983.83 1123.89)"><tspan class="cls-14">Grunnhug<tspan class="cls-17" x="91.95" y="0">m</tspan><tspan x="108.8" y="0">ynd / </tspan></tspan><tspan class="cls-19"><tspan x="41.82" y="27.66">Conce</tspan><tspan class="cls-25" x="104.07" y="27.66">p</tspan><tspan class="cls-14" x="116.33" y="27.66">t</tspan></tspan><tspan class="cls-19" x="26.26" y="82.99">Mar</tspan><tspan x="62.09" y="82.99">k</tspan><tspan class="cls-14" x="72.6" y="82.99">a</tspan><tspan class="cls-17" x="83.51" y="82.99">ð</tspan><tspan class="cls-19" x="95.85" y="82.99">smál</tspan></text><line class="cls-63" x1="650.15" y1="266.25" x2="650.15" y2="304.34"/><line class="cls-63" x1="650.15" y1="492.32" x2="650.15" y2="530.42"/><line class="cls-63" x1="650.35" y1="687.89" x2="650.35" y2="907.45"/><polyline class="cls-63" points="233.26 941.5 233.26 907.45 1070.99 907.45 1070.99 941.5"/><line class="cls-63" x1="792.22" y1="907.45" x2="792.22" y2="941.5"/><line class="cls-63" x1="509.2" y1="907.45" x2="509.2" y2="941.5"/><line class="cls-63" x1="121.19" y1="1061.38" x2="1179.52" y2="1061.38"/><line class="cls-1" x1="885.9" y1="765.95" x2="885.9" y2="765.95"/><line class="cls-64" x1="880.4" y1="765.95" x2="866.66" y2="765.95"/><line class="cls-1" x1="863.91" y1="765.95" x2="863.91" y2="765.95"/><line class="cls-65" x1="863.91" y1="770.82" x2="863.91" y2="836.57"/><line class="cls-1" x1="863.91" y1="839.01" x2="863.91" y2="839.01"/><line class="cls-64" x1="869.4" y1="839.01" x2="883.15" y2="839.01"/><line class="cls-1" x1="885.9" y1="839.01" x2="885.9" y2="839.01"/></svg>